<svg xmlns="http://www.w3.org/2000/svg" width="15" height="20" viewBox="0 0 15 20">
  <path id="Icon_awesome-file-excel" data-name="Icon awesome-file-excel" d="M8.75,5.313V0H.938A.935.935,0,0,0,0,.938V19.063A.935.935,0,0,0,.938,20H14.063A.935.935,0,0,0,15,19.063V6.25H9.688A.94.94,0,0,1,8.75,5.313ZM11.1,9.473,8.75,13.125,11.1,16.777a.469.469,0,0,1-.395.723H9.34a.47.47,0,0,1-.414-.246C8.16,15.84,7.5,14.57,7.5,14.57c-.25.578-.391.781-1.43,2.687a.464.464,0,0,1-.41.246H4.3a.469.469,0,0,1-.395-.723l2.355-3.652L3.9,9.477A.468.468,0,0,1,4.3,8.754H5.656A.47.47,0,0,1,6.07,9c1.02,1.906.781,1.312,1.43,2.676,0,0,.238-.457,1.43-2.676a.47.47,0,0,1,.414-.246H10.7A.466.466,0,0,1,11.1,9.473ZM15,4.762V5H10V0h.238A.937.937,0,0,1,10.9.273L14.727,4.1A.935.935,0,0,1,15,4.762Z" fill="#888"/>
</svg>
