<svg xmlns="http://www.w3.org/2000/svg" width="18" height="16" viewBox="0 0 18 16">
  <path id="Icon_awesome-archive" data-name="Icon awesome-archive" d="M1.125,17.107A1.133,1.133,0,0,0,2.25,18.25h13.5a1.133,1.133,0,0,0,1.125-1.143V6.821H1.125ZM6.75,9.536a.427.427,0,0,1,.422-.429h3.656a.427.427,0,0,1,.422.429v.286a.427.427,0,0,1-.422.429H7.172a.427.427,0,0,1-.422-.429ZM16.875,2.25H1.125A1.133,1.133,0,0,0,0,3.393V5.107a.569.569,0,0,0,.563.571H17.437A.569.569,0,0,0,18,5.107V3.393A1.133,1.133,0,0,0,16.875,2.25Z" transform="translate(0 -2.25)" fill="#adcbfa"/>
</svg>
