<svg xmlns="http://www.w3.org/2000/svg" width="20.25" height="13.5" viewBox="0 0 20.25 13.5">
  <path id="Icon_awesome-eye" data-name="Icon awesome-eye" d="M20.128,10.737a11.276,11.276,0,0,0-10-6.237,11.278,11.278,0,0,0-10,6.237,1.137,1.137,0,0,0,0,1.026,11.276,11.276,0,0,0,10,6.237,11.278,11.278,0,0,0,10-6.237A1.137,1.137,0,0,0,20.128,10.737Zm-10,5.576a5.062,5.062,0,1,1,5.063-5.062A5.063,5.063,0,0,1,10.125,16.313Zm0-8.437a3.351,3.351,0,0,0-.89.133A1.682,1.682,0,0,1,6.883,10.36a3.367,3.367,0,1,0,3.242-2.485Z" transform="translate(0 -4.5)" fill="#adcbfa"/>
</svg>
